# xmcd
#
# Track frame offsets: 
#        183
#        12973
#        26895
#        40643
#        50715
#        62200
#        74463
#        105645
#        121750
#        140695
#        153603
#        168198
#        186823
#        211483
#
# Disc length: 2984 seconds
#
# Revision: 2
# Processed by: cddbd v1.4PL0 Copyright (c) Steve Scherf et al.
# Submitted via: ExactAudioCopy v0.90b4
#
DISCID=c90ba60e
DTITLE=Various Artist - The Ultimate Blues Collection [CD 1)
DYEAR=1990
DGENRE=
TTITLE0=Muddy Waters - Hoochie Coochie Man
TTITLE1=Howlin' Wolf - Smokestack Lightning
TTITLE2=Elmore James - Dust my broom
TTITLE3=John Lee Hooker - Dimples
TTITLE4=Sonny Boy Williamson - Don't start me talkin'
TTITLE5=Little Walker - Juke
TTITLE6=BB King - Outside Help
TTITLE7=John Mayall's Blues Breakers - All your love
TTITLE8=Alexis Korner - I got my Mojo working
TTITLE9=Fleetwood Mac - Black Magic Woman
TTITLE10=Chicken Shack - I'd rather go blind
TTITLE11=Savoy Brown - Train to nowhere
TTITLE12=Jimi Hendrix - Catfish Blues
TTITLE13=Johnny Winter - Good Morning little school girl
EXTD=
EXTT0=
EXTT1=
EXTT2=
EXTT3=
EXTT4=
EXTT5=
EXTT6=
EXTT7=
EXTT8=
EXTT9=
EXTT10=
EXTT11=
EXTT12=
EXTT13=
PLAYORDER=
